<svg xmlns="http://www.w3.org/2000/svg" viewBox="0 0 98.26 77.08"><defs><style>.a{fill:#fff;}</style></defs><title>Sin título-3</title><path class="a" d="M68.82,34.73a7.74,7.74,0,0,1,3.44.88c1.78,0.84,3.86,1.81,6.47,3.07,0,0,4.2-3,4.43-3.15a2.21,2.21,0,0,1,3.26.61,80.09,80.09,0,0,1,6,14.73,1.66,1.66,0,0,1-1.09,2,22.72,22.72,0,0,1-2.75.46c-1.52.19-1.5,1.42-1.5,2.17,0,0.93,0,7.12,0,9.25a5.61,5.61,0,0,1-5.88,5.56H70a7.72,7.72,0,0,1-7.68-7.39c0-2.51,0-20,0-21.93a6.5,6.5,0,0,1,6.51-6.29h0Z" transform="translate(-0.99 -11.41)"/><path class="a" d="M51.07,70.34H14.6v4.05H57.39a21.43,21.43,0,0,0,1.55-7.55c0-.21,0-27.49,0-27.49a6.56,6.56,0,0,1,5.34-6.81l0.38-.08c12.63-3,25.64-.27,33,2.9C99,36,99.29,34.95,99.25,34.5A13.51,13.51,0,0,0,86.06,20.85,22.89,22.89,0,0,0,73.72,23.9a0.38,0.38,0,0,1-.45-0.15,18.23,18.23,0,0,0-7.16-4.07,0.43,0.43,0,0,1,0-.85A57.67,57.67,0,0,1,81,19.27c0.56,0.1,1-.23.76-0.75s-0.31-.57-0.6-1.18A6.61,6.61,0,0,0,77,14.17a94.84,94.84,0,0,0-22-2.75,105,105,0,0,0-20.7,2.26C33.74,13.8,32.94,14,32.79,14a0.67,0.67,0,0,0-.52,1.05c0.17,0.19.67,0.61,0.9,0.89A1,1,0,0,1,33,17.41L16.55,32.22H28a1.49,1.49,0,0,1,.05,3H13.27L8.78,39.28h19.3a1.48,1.48,0,0,1,0,3H5.49L1,46.28H39.89a1.5,1.5,0,0,1,1.36,1.48,1.41,1.41,0,0,1-1.33,1.5H1v4.05H39.84a1.48,1.48,0,0,1,1.41,1.54,1.5,1.5,0,0,1-1.42,1.41H1v4.07H51.68A1.43,1.43,0,0,1,53,61.88a1.45,1.45,0,0,1-1.35,1.41H14.62v4.08H51.85a1.56,1.56,0,0,1,1.27,1.53,1.46,1.46,0,0,1-1.29,1.44H51.07Z" transform="translate(-0.99 -11.41)"/><path class="a" d="M28.22,84.34v4.15s5.48,0,8.61,0a22,22,0,0,0,12.75-4.15H28.22Z" transform="translate(-0.99 -11.41)"/><path class="a" d="M28.22,77.36v4.06H53a22.68,22.68,0,0,0,3-4.05H28.22Z" transform="translate(-0.99 -11.41)"/></svg>